<svg width="40" height="40" viewBox="0 0 40 40" fill="none" xmlns="http://www.w3.org/2000/svg">
<path d="M27.2909 19.2287L25.4087 21.1109C25.4063 20.4033 25.1234 19.7256 24.6222 19.2262C24.121 18.7268 23.4422 18.4464 22.7347 18.4465H15.6722C15.3712 18.4457 15.073 18.5046 14.7949 18.6198C14.5168 18.7351 14.2644 18.9043 14.0522 19.1178L9.7253 23.445L9.08999 22.8096C8.98739 22.7071 8.84829 22.6496 8.70327 22.6496C8.55824 22.6496 8.41915 22.7071 8.31655 22.8096L5.55092 25.5756C5.50011 25.6263 5.45979 25.6866 5.43229 25.7529C5.40478 25.8192 5.39063 25.8903 5.39062 25.9621C5.39063 26.034 5.40478 26.1051 5.43229 26.1714C5.45979 26.2377 5.50011 26.298 5.55092 26.3487L13.6512 34.449C13.702 34.4998 13.7622 34.5402 13.8286 34.5677C13.8949 34.5952 13.966 34.6093 14.0378 34.6093C14.1096 34.6093 14.1807 34.5952 14.247 34.5677C14.3134 34.5402 14.3736 34.4998 14.4244 34.449L17.1903 31.6834C17.2928 31.5808 17.3504 31.4417 17.3504 31.2967C17.3504 31.1517 17.2928 31.0126 17.1903 30.91L16.7075 30.4271L18.6187 28.5159C18.6838 28.4504 18.7613 28.3986 18.8466 28.3633C18.9319 28.328 19.0233 28.31 19.1156 28.3103H24.9375C25.3195 28.3113 25.6979 28.2365 26.0508 28.0903C26.4037 27.9441 26.7241 27.7293 26.9934 27.4584L34.4497 20.0021C34.5005 19.9514 34.5408 19.8911 34.5683 19.8247C34.5958 19.7584 34.61 19.6873 34.61 19.6154C34.61 19.5436 34.5958 19.4725 34.5683 19.4061C34.5408 19.3397 34.5005 19.2795 34.4497 19.2287C33.4997 18.2807 32.2124 17.7484 30.8703 17.7484C29.5282 17.7484 28.2409 18.2807 27.2909 19.2287ZM14.0378 33.289L6.71092 25.9621L8.70342 23.9687L16.0312 31.2965L14.0378 33.289ZM26.2187 26.6853C26.0508 26.8541 25.8512 26.9879 25.6313 27.0791C25.4114 27.1703 25.1756 27.217 24.9375 27.2165H19.1156C18.8796 27.2158 18.6458 27.262 18.4278 27.3523C18.2097 27.4425 18.0117 27.5752 17.8453 27.7425L15.9347 29.6534L10.5069 24.2103L14.8259 19.8909C14.9369 19.7794 15.0689 19.691 15.2143 19.6309C15.3596 19.5707 15.5155 19.5399 15.6728 19.5403H22.7353C22.9561 19.5403 23.1745 19.5865 23.3764 19.6761C23.5783 19.7657 23.7591 19.8965 23.9073 20.0602C24.0555 20.224 24.1678 20.4169 24.2369 20.6267C24.306 20.8364 24.3303 21.0583 24.3084 21.2781C24.2545 21.6785 24.0549 22.0451 23.7479 22.3077C23.4408 22.5704 23.0477 22.7107 22.6437 22.7018H19.1937C19.0487 22.7018 18.9096 22.7594 18.807 22.862C18.7045 22.9646 18.6469 23.1037 18.6469 23.2487C18.6469 23.3937 18.7045 23.5328 18.807 23.6354C18.9096 23.738 19.0487 23.7956 19.1937 23.7956H24.0444C24.1895 23.7955 24.3286 23.7379 24.4312 23.6353L28.0644 20.0021C28.7421 19.3261 29.6411 18.9174 30.5961 18.8512C31.5511 18.785 32.4979 19.0657 33.2625 19.6418L26.2187 26.6853Z" fill="white"/>
<path d="M14.6541 10.7366C14.6541 11.7939 14.9676 12.8275 15.555 13.7066C16.1424 14.5857 16.9773 15.2709 17.9542 15.6756C18.931 16.0802 20.0059 16.1861 21.0429 15.9798C22.0799 15.7735 23.0325 15.2644 23.7801 14.5167C24.5278 13.7691 25.0369 12.8165 25.2432 11.7795C25.4495 10.7425 25.3436 9.6676 24.939 8.69076C24.5344 7.71392 23.8492 6.879 22.97 6.29158C22.0909 5.70416 21.0573 5.39062 20 5.39063C18.5827 5.39228 17.2239 5.95604 16.2217 6.95824C15.2195 7.96044 14.6557 9.31924 14.6541 10.7366ZM24.2522 10.7366C24.2522 11.5776 24.0028 12.3997 23.5356 13.099C23.0683 13.7982 22.4042 14.3432 21.6272 14.6651C20.8502 14.9869 19.9953 15.0711 19.1704 14.907C18.3456 14.743 17.5879 14.338 16.9932 13.7433C16.3986 13.1486 15.9936 12.391 15.8295 11.5661C15.6654 10.7413 15.7496 9.88631 16.0715 9.10932C16.3933 8.33233 16.9383 7.66823 17.6376 7.201C18.3369 6.73376 19.159 6.48438 20 6.48438C21.1273 6.4857 22.2081 6.93412 23.0053 7.73127C23.8024 8.52843 24.2509 9.60922 24.2522 10.7366Z" fill="white"/>
<path d="M19.4531 7.89628V8.22034C19.0749 8.29098 18.7367 8.50024 18.5047 8.80717C18.2726 9.11409 18.1635 9.49657 18.1987 9.8797C18.2339 10.2628 18.4109 10.6191 18.6949 10.8786C18.9789 11.1381 19.3496 11.2823 19.7344 11.2828H20.2656C20.325 11.2828 20.3838 11.2945 20.4387 11.3173C20.4935 11.34 20.5434 11.3733 20.5854 11.4153C20.6273 11.4573 20.6607 11.5071 20.6834 11.562C20.7061 11.6168 20.7178 11.6756 20.7178 11.735C20.7178 11.7944 20.7061 11.8532 20.6834 11.9081C20.6607 11.9629 20.6273 12.0128 20.5854 12.0548C20.5434 12.0968 20.4935 12.1301 20.4387 12.1528C20.3838 12.1755 20.325 12.1872 20.2656 12.1872H19C18.8549 12.1872 18.7158 12.2448 18.6133 12.3474C18.5107 12.45 18.4531 12.5891 18.4531 12.7341C18.4531 12.8791 18.5107 13.0182 18.6133 13.1208C18.7158 13.2234 18.8549 13.281 19 13.281H19.4531V13.5766C19.4531 13.7216 19.5107 13.8607 19.6133 13.9633C19.7158 14.0659 19.8549 14.1235 20 14.1235C20.145 14.1235 20.2841 14.0659 20.3867 13.9633C20.4892 13.8607 20.5469 13.7216 20.5469 13.5766V13.2532C20.9251 13.1825 21.2633 12.9733 21.4953 12.6663C21.7273 12.3594 21.8364 11.9769 21.8012 11.5938C21.766 11.2107 21.5891 10.8544 21.3051 10.5949C21.021 10.3354 20.6504 10.1912 20.2656 10.1907H19.7344C19.674 10.1922 19.6139 10.1817 19.5577 10.1597C19.5015 10.1377 19.4502 10.1047 19.407 10.0625C19.3637 10.0204 19.3293 9.97004 19.3059 9.91441C19.2824 9.85878 19.2703 9.79901 19.2703 9.73862C19.2703 9.67824 19.2824 9.61847 19.3059 9.56284C19.3293 9.5072 19.3637 9.45684 19.407 9.4147C19.4502 9.37257 19.5015 9.33953 19.5577 9.31753C19.6139 9.29552 19.674 9.285 19.7344 9.28659H21C21.145 9.28659 21.2841 9.22898 21.3867 9.12642C21.4892 9.02386 21.5469 8.88476 21.5469 8.73972C21.5469 8.59468 21.4892 8.45558 21.3867 8.35302C21.2841 8.25046 21.145 8.19284 21 8.19284H20.5469V7.89722C20.5469 7.75218 20.4892 7.61308 20.3867 7.51052C20.2841 7.40796 20.145 7.35034 20 7.35034C19.8549 7.35034 19.7158 7.40796 19.6133 7.51052C19.5107 7.61308 19.4531 7.75218 19.4531 7.89722V7.89628Z" fill="white"/>
</svg>
