<svg width="28" height="27" viewBox="0 0 28 27" fill="none" xmlns="http://www.w3.org/2000/svg">
<g clip-path="url(#clip0)">
<path d="M16.3333 10.2262L26.6117 12.1949C27.44 12.3637 28 13.0387 28 13.8374V25.3124C28 26.2462 27.2183 26.9999 26.25 26.9999H15.75C16.0767 26.9999 16.3333 26.7524 16.3333 26.4374V25.8749H26.25C26.565 25.8749 26.8333 25.6274 26.8333 25.3124V13.8374C26.8333 13.5787 26.6467 13.3424 26.3783 13.2862L16.3333 11.3737V10.2262Z" fill="white"/>
<path d="M22.75 15.75C23.0767 15.75 23.3334 15.9975 23.3334 16.3125C23.3334 16.6275 23.0767 16.875 22.75 16.875H20.4167C20.09 16.875 19.8334 16.6275 19.8334 16.3125C19.8334 15.9975 20.09 15.75 20.4167 15.75H22.75Z" fill="white"/>
<path d="M22.75 19.125C23.0767 19.125 23.3334 19.3725 23.3334 19.6875C23.3334 20.0025 23.0767 20.25 22.75 20.25H20.4167C20.09 20.25 19.8334 20.0025 19.8334 19.6875C19.8334 19.3725 20.09 19.125 20.4167 19.125H22.75Z" fill="white"/>
<path d="M22.75 22.4999C23.0767 22.4999 23.3334 22.7474 23.3334 23.0624C23.3334 23.3774 23.0767 23.6249 22.75 23.6249H20.4167C20.09 23.6249 19.8334 23.3774 19.8334 23.0624C19.8334 22.7474 20.09 22.4999 20.4167 22.4999H22.75Z" fill="white"/>
<path d="M16.3333 26.4375C16.3333 26.7525 16.0766 27 15.75 27C15.4233 27 15.1666 26.7525 15.1666 26.4375V25.875V10.6875C15.1666 10.5187 15.2483 10.3612 15.3766 10.2487C15.5166 10.1475 15.6916 10.1025 15.8666 10.1362L16.3333 10.2262V11.3737V25.875V26.4375Z" fill="white"/>
<path d="M15.1666 25.8749V26.4374C15.1666 26.7524 15.4233 26.9999 15.75 26.9999H11.0833C11.41 26.9999 11.6666 26.7524 11.6666 26.4374V25.8749H15.1666Z" fill="white"/>
<path d="M12.25 5.62494C12.5767 5.62494 12.8334 5.87244 12.8334 6.18744C12.8334 6.50244 12.5767 6.74994 12.25 6.74994H9.91671C9.59004 6.74994 9.33337 6.50244 9.33337 6.18744C9.33337 5.87244 9.59004 5.62494 9.91671 5.62494H12.25Z" fill="white"/>
<path d="M12.8334 9.5625C12.8334 9.8775 12.5767 10.125 12.25 10.125H9.91671C9.59004 10.125 9.33337 9.8775 9.33337 9.5625C9.33337 9.2475 9.59004 9 9.91671 9H12.25C12.5767 9 12.8334 9.2475 12.8334 9.5625Z" fill="white"/>
<path d="M12.25 12.3749C12.5767 12.3749 12.8334 12.6224 12.8334 12.9374C12.8334 13.2524 12.5767 13.4999 12.25 13.4999H9.91671C9.59004 13.4999 9.33337 13.2524 9.33337 12.9374C9.33337 12.6224 9.59004 12.3749 9.91671 12.3749H12.25Z" fill="white"/>
<path d="M12.25 15.75C12.5767 15.75 12.8334 15.9975 12.8334 16.3125C12.8334 16.6275 12.5767 16.875 12.25 16.875H9.91671C9.59004 16.875 9.33337 16.6275 9.33337 16.3125C9.33337 15.9975 9.59004 15.75 9.91671 15.75H12.25Z" fill="white"/>
<path d="M7 16.3125C7 16.6275 6.74333 16.875 6.41667 16.875H4.08333C3.75667 16.875 3.5 16.6275 3.5 16.3125C3.5 15.9975 3.75667 15.75 4.08333 15.75H6.41667C6.74333 15.75 7 15.9975 7 16.3125Z" fill="white"/>
<path d="M6.41667 5.62494C6.74333 5.62494 7 5.87244 7 6.18744C7 6.50244 6.74333 6.74994 6.41667 6.74994H4.08333C3.75667 6.74994 3.5 6.50244 3.5 6.18744C3.5 5.87244 3.75667 5.62494 4.08333 5.62494H6.41667Z" fill="white"/>
<path d="M6.41667 9C6.74333 9 7 9.2475 7 9.5625C7 9.8775 6.74333 10.125 6.41667 10.125H4.08333C3.75667 10.125 3.5 9.8775 3.5 9.5625C3.5 9.2475 3.75667 9 4.08333 9H6.41667Z" fill="white"/>
<path d="M6.41667 12.3749C6.74333 12.3749 7 12.6224 7 12.9374C7 13.2524 6.74333 13.4999 6.41667 13.4999H4.08333C3.75667 13.4999 3.5 13.2524 3.5 12.9374C3.5 12.6224 3.75667 12.3749 4.08333 12.3749H6.41667Z" fill="white"/>
<path d="M10.5 20.8125C10.5 20.4975 10.2317 20.25 9.91669 20.25H6.41669C6.09002 20.25 5.83335 20.4975 5.83335 20.8125V25.875H4.66669V20.8125C4.66669 19.8788 5.44835 19.125 6.41669 19.125H9.91669C10.885 19.125 11.6667 19.8788 11.6667 20.8125V25.875H10.5V20.8125Z" fill="white"/>
<path d="M5.83335 25.8749H10.5H11.6667V26.4374C11.6667 26.7524 11.41 26.9999 11.0834 26.9999H5.25002C4.92335 26.9999 4.66669 26.7524 4.66669 26.4374V25.8749H5.83335Z" fill="white"/>
<path d="M2.04167 0.224967L14.8633 2.10372C15.715 2.23872 16.3333 2.93622 16.3333 3.76872V10.2262L15.8667 10.1362C15.6917 10.1025 15.5167 10.1475 15.3767 10.2487C15.2483 10.3612 15.1667 10.5187 15.1667 10.6875V3.76872C15.1667 3.48747 14.9567 3.25122 14.6767 3.20622L1.855 1.33872C1.82 1.32747 1.785 1.32747 1.75 1.32747C1.61 1.32747 1.48167 1.37247 1.37667 1.46247C1.23667 1.57497 1.16667 1.72122 1.16667 1.88997V25.3125C1.16667 25.6275 1.435 25.875 1.75 25.875H4.66667V26.4375C4.66667 26.7525 4.92333 27 5.25 27H1.75C0.781667 27 0 26.2462 0 25.3125V1.88997C0 1.39497 0.221667 0.922467 0.618333 0.607467C1.015 0.281217 1.52833 0.146217 2.04167 0.224967Z" fill="white"/>
</g>
<defs>
<clipPath id="clip0">
<rect width="28" height="27" fill="white"/>
</clipPath>
</defs>
</svg>
