<svg width="32" height="32" viewBox="0 0 32 32" fill="none" xmlns="http://www.w3.org/2000/svg">
<path fill-rule="evenodd" clip-rule="evenodd" d="M31.8333 16.3831C31.8333 16.924 31.3908 17.3625 30.845 17.3625H30.8336C30.5705 17.3626 30.3185 17.2575 30.1346 17.0711C29.9508 16.8846 29.8505 16.6325 29.8566 16.3719V13.4111C29.8566 9.51592 27.6868 7.3657 23.7562 7.3657H14.0772C10.1352 7.3657 7.97669 9.51592 7.97669 13.4111V23.0139C7.97669 26.9091 10.1465 29.048 14.0772 29.048H23.7562C27.6982 29.048 29.8566 26.8978 29.8566 23.0139C29.8566 22.473 30.2991 22.0345 30.845 22.0345C31.3908 22.0345 31.8333 22.473 31.8333 23.0139C31.8333 27.9448 28.7433 31.0069 23.7675 31.0069H14.0772C9.09 31.0069 6 27.9448 6 23.0139V13.4111C6 8.46896 9.09 5.40686 14.0772 5.40686H23.7562C28.7206 5.40686 31.8333 8.46896 31.8333 13.4111V16.3831ZM12.4073 24.2072V16.0904V16.0116C12.4162 15.7528 12.5293 15.5082 12.7214 15.3326C12.9136 15.157 13.1687 15.0651 13.4298 15.0772C13.6919 15.0861 13.9398 15.1978 14.1188 15.3878C14.2978 15.5779 14.3932 15.8306 14.384 16.0904V24.2748C14.3652 24.8157 13.9074 25.2391 13.3616 25.2204C12.8158 25.2018 12.3885 24.7482 12.4073 24.2072ZM17.9736 12.2178V24.2185C17.9736 24.7594 18.4161 25.1979 18.962 25.1979C19.5078 25.1979 19.9503 24.7594 19.9503 24.2185V12.2178C19.9503 11.6769 19.5078 11.2384 18.962 11.2384C18.4161 11.2384 17.9736 11.6769 17.9736 12.2178ZM23.4495 24.2072V20.3796C23.4495 19.8386 23.892 19.4001 24.4378 19.4001C24.9837 19.4001 25.4262 19.8386 25.4262 20.3796V24.2072C25.4262 24.7481 24.9837 25.1866 24.4378 25.1866C23.892 25.1866 23.4495 24.7481 23.4495 24.2072Z" fill="white"/>
</svg>
