<svg width="19" height="21" viewBox="0 0 19 21" fill="none" xmlns="http://www.w3.org/2000/svg">
<path fill-rule="evenodd" clip-rule="evenodd" d="M13.951 4.21682C14.4502 4.63827 14.7915 5.19252 14.9107 5.77865C15.0439 6.43295 14.8967 7.09699 14.497 7.64594L7.68012 17.0098C7.33553 17.4835 6.81742 17.7597 6.25736 17.7677L3.62731 17.8031H3.61991C3.33289 17.8031 3.0837 17.5906 3.01873 17.2896L2.42331 14.5325C2.29666 13.9455 2.42167 13.3372 2.76708 12.8635L3.66185 11.6337C3.87157 11.3451 4.25974 11.2937 4.52785 11.5213C4.79595 11.7471 4.84283 12.165 4.63229 12.4536L3.73752 13.6834C3.62402 13.8392 3.5829 14.0384 3.62485 14.2315L4.1076 16.468L6.24174 16.4396C6.42513 16.437 6.59537 16.3467 6.70886 16.1908L13.5258 6.82695C13.7001 6.5879 13.7602 6.33113 13.7059 6.06197C13.6475 5.77776 13.4649 5.49355 13.1902 5.26247L12.0471 4.29651C11.6046 3.92464 10.9804 3.7334 10.5544 4.32041L9.65389 5.55642L11.0832 6.79065C11.3489 7.01908 11.3916 7.43787 11.1786 7.72296C11.0569 7.88765 10.8776 7.97264 10.6967 7.97264C10.5618 7.97264 10.4253 7.92483 10.3118 7.82655L8.89317 6.60206L6.56083 9.80629C6.35029 10.0949 5.96294 10.1472 5.69402 9.91873C5.42673 9.69296 5.37986 9.27505 5.58957 8.98641L9.58316 3.50054C10.3579 2.43453 11.7148 2.33006 12.8078 3.25175L13.951 4.21682ZM10.7637 16.4751H16.0082C16.3487 16.4751 16.625 16.7724 16.625 17.1387C16.625 17.5051 16.3487 17.8023 16.0082 17.8023H10.7637C10.4224 17.8023 10.1469 17.5051 10.1469 17.1387C10.1469 16.7724 10.4224 16.4751 10.7637 16.4751Z" fill="white"/>
</svg>
