<svg width="22" height="23" viewBox="0 0 22 23" fill="none" xmlns="http://www.w3.org/2000/svg">
<path d="M21.4272 0.0768433H0.572972C0.25649 0.0768433 0 0.341374 0 0.667777V22.3673C0 22.6938 0.25649 22.9583 0.572972 22.9583H7.50558V22.9531C7.81846 22.9494 8.0582 22.7687 8.06921 22.463C8.09765 21.6684 8.07757 20.8722 8.07757 20.104C7.51921 20.1309 6.98615 20.2036 6.45911 20.1723C5.29669 20.1033 4.40344 19.5917 3.94019 18.4178C3.66577 17.7223 3.25227 17.1275 2.60829 16.7305C2.48803 16.6563 2.38289 16.5471 2.29087 16.4362C2.17061 16.2915 2.19311 16.1428 2.38312 16.1031C2.57482 16.0629 2.78424 16.0348 2.97328 16.0713C3.71572 16.215 4.22913 16.6953 4.62213 17.334C5.39921 18.5977 6.59534 18.9845 7.94107 18.4009C8.0161 18.3684 8.11147 18.2895 8.12561 18.2175C8.23411 17.6582 8.43682 17.1481 8.84532 16.7009C8.39116 16.6142 7.97048 16.5503 7.55791 16.4517C6.36991 16.1682 5.30266 15.6581 4.52222 14.6451C3.88547 13.8188 3.59429 12.8514 3.46044 11.8219C3.25082 10.2094 3.43845 8.69997 4.51218 7.41135C4.56643 7.34626 4.59584 7.21288 4.5717 7.1318C4.30279 6.22558 4.34388 5.32697 4.61041 4.43086C4.75027 3.96025 4.78921 3.93681 5.25486 4.00238C5.28333 4.00633 5.31102 4.0137 5.33926 4.01866C6.27265 4.17793 7.07606 4.64407 7.86748 5.14453C7.97387 5.21184 8.13592 5.25374 8.25282 5.22441C10.1431 4.75134 12.0297 4.75332 13.9198 5.22615C14.0295 5.2535 14.176 5.21454 14.2809 5.15787C14.7112 4.92588 15.1231 4.6562 15.5588 4.43626C16.0658 4.18063 16.5998 3.98833 17.1747 3.99892C17.2753 4.00089 17.4309 4.09999 17.4646 4.19171C17.8105 5.13688 17.8834 6.10006 17.6078 7.0837C17.5784 7.18871 17.6221 7.33836 17.6769 7.44189C17.9489 7.95665 18.3287 8.43169 18.5008 8.97771C19.0255 10.642 18.8343 12.29 18.12 13.8542C17.4656 15.288 16.2518 16.0145 14.815 16.3893C14.3297 16.5158 13.8326 16.5927 13.3091 16.6987C13.9951 17.4378 14.1026 18.3398 14.0905 19.2845C14.0778 20.2589 14.0812 21.2337 14.0806 22.2085C14.0804 22.6806 14.2802 22.9414 14.629 22.9567C14.6287 22.9582 22 22.9581 22 22.9581V0.667777C21.9999 0.341374 21.7435 0.0768433 21.4272 0.0768433Z" fill="white"/>
</svg>
