<svg width="32" height="34" viewBox="0 0 32 34" fill="none" xmlns="http://www.w3.org/2000/svg">
<path d="M28.25 2.65625H26.75V0H24.25V2.65625H7.75V0H5.25V2.65625H3.75C1.68225 2.65625 0 4.44364 0 6.64062V30.0156C0 32.2126 1.68225 34 3.75 34H28.25C30.3177 34 32 32.2126 32 30.0156V6.64062C32 4.44364 30.3177 2.65625 28.25 2.65625ZM29.5 30.0156C29.5 30.748 28.9393 31.3438 28.25 31.3438H3.75C3.06075 31.3438 2.5 30.748 2.5 30.0156V12.4844H29.5V30.0156ZM29.5 9.82812H2.5V6.64062C2.5 5.9083 3.06075 5.3125 3.75 5.3125H5.25V7.96875H7.75V5.3125H24.25V7.96875H26.75V5.3125H28.25C28.9393 5.3125 29.5 5.9083 29.5 6.64062V9.82812Z" fill="white"/>
</svg>
