<svg width="34" height="37" viewBox="0 0 34 37" fill="none" xmlns="http://www.w3.org/2000/svg">
<path d="M10.1884 29.3734C10.8782 29.4165 11.5022 29.7258 11.9614 30.201C12.4603 30.7132 12.7684 31.422 12.7684 32.2045V33.3066C13.631 32.1656 14.1437 30.7296 14.1437 29.1707C14.1437 27.3085 13.4104 25.6206 12.2257 24.3997C11.0411 23.1788 9.40526 22.425 7.59656 22.425C5.78982 22.425 4.15403 23.1788 2.96944 24.3997C1.78479 25.6206 1.05143 27.3085 1.05143 29.1707C1.05143 30.7276 1.5642 32.1615 2.42483 33.3045V32.2045C2.42483 31.424 2.73497 30.7152 3.2319 30.201C3.693 29.7258 4.31712 29.4164 5.00674 29.3734C4.88354 29.0498 4.81594 28.6995 4.81594 28.3328V26.5916V25.8418C4.81594 25.3338 5.01669 24.8729 5.34064 24.539C5.66459 24.2052 6.11187 23.9983 6.60473 23.9983H9.85248C10.1446 23.9983 10.3792 24.24 10.3792 24.5411V26.5917V28.3329C10.3793 28.6995 10.3117 29.0498 10.1884 29.3734ZM5.86737 26.0507H9.32778V25.0818H6.6048C6.40202 25.0818 6.21922 25.1678 6.08403 25.3051C5.95088 25.4444 5.86737 25.6328 5.86737 25.8418V26.0507ZM9.32778 27.1344H5.86737V28.3328C5.86737 29.3119 6.64652 30.115 7.59656 30.115C8.54863 30.115 9.32771 29.3119 9.32771 28.3328V27.1344H9.32778ZM28.1326 6.40974C27.5205 6.47941 26.6101 6.4302 25.833 5.76037C25.5547 5.91603 25.1532 6.07176 24.6721 6.05745V6.99351C24.6721 7.48311 24.8669 7.92768 25.181 8.25129C25.4951 8.57497 25.9264 8.77572 26.4034 8.77572C26.8784 8.77572 27.3098 8.57497 27.6238 8.25129C27.9378 7.92761 28.1326 7.48311 28.1326 6.99351V6.40974ZM24.6721 4.97578C24.9842 4.9963 25.3181 4.87135 25.5507 4.65824C25.7693 4.46363 26.1012 4.4882 26.2901 4.7136C26.8764 5.40597 27.6774 5.39983 28.1326 5.32403V4.50056C28.1326 4.29366 28.0491 4.10317 27.9159 3.96594C27.7827 3.82661 27.5979 3.74264 27.3951 3.74264H25.4095C25.2067 3.74264 25.0239 3.82661 24.8887 3.96594C24.7557 4.10317 24.6721 4.29366 24.6721 4.50056V4.97578H24.6721ZM5.72825 30.4509H5.17768C4.71063 30.4509 4.28522 30.6497 3.97712 30.9672C3.66705 31.2847 3.47633 31.7231 3.47633 32.2045V34.4128C3.93147 34.7918 4.43632 35.1113 4.98093 35.3551V33.2082C4.98093 32.9071 5.21548 32.6654 5.50563 32.6654C5.79585 32.6654 6.03236 32.9071 6.03236 33.2082V35.7218C6.53328 35.8488 7.05798 35.9164 7.59663 35.9164C8.13731 35.9164 8.66194 35.8487 9.16294 35.7218V33.2082C9.16294 32.9071 9.39944 32.6654 9.68966 32.6654C9.97989 32.6654 10.2143 32.9071 10.2143 33.2082V35.3551C10.759 35.1113 11.2658 34.7918 11.7209 34.4108V32.2045C11.7209 31.7252 11.5281 31.2868 11.218 30.9673C10.91 30.6497 10.4846 30.451 10.0175 30.451H9.46697C8.97411 30.916 8.31618 31.2008 7.59663 31.2008C6.87911 31.2007 6.22119 30.916 5.72825 30.4509ZM29.1841 6.99351C29.1841 7.35823 29.1165 7.71053 28.9932 8.03211C29.6829 8.0772 30.307 8.38447 30.7682 8.85969C31.2651 9.37394 31.5731 10.0827 31.5731 10.8652V11.9673C32.4358 10.8243 32.9486 9.38832 32.9486 7.82933C32.9486 5.96719 32.2151 4.2813 31.0306 3.06038C29.8459 1.83945 28.2101 1.08355 26.4034 1.08355C24.5947 1.08355 22.9589 1.83945 21.7742 3.06038C20.5896 4.2813 19.8562 5.96726 19.8562 7.82933C19.8562 9.38824 20.369 10.8222 21.2297 11.9632V10.8652C21.2297 10.0827 21.5397 9.37394 22.0386 8.85969C22.4978 8.38447 23.1219 8.0772 23.8116 8.03211C23.6883 7.71053 23.6207 7.35823 23.6207 6.99351V4.50056C23.6207 3.99463 23.8215 3.53364 24.1454 3.19978C24.4694 2.86584 24.9167 2.65894 25.4095 2.65894H27.3951C27.8881 2.65894 28.3353 2.86584 28.6592 3.19978C28.9832 3.53364 29.1839 3.99463 29.1839 4.50056V6.99351H29.1841ZM28.2717 9.11168C27.7788 9.57469 27.1209 9.85949 26.4034 9.85949C25.6838 9.85949 25.0279 9.57476 24.533 9.11168H23.9824C23.5153 9.11168 23.0899 9.30846 22.7819 9.62593C22.4718 9.94548 22.281 10.3838 22.281 10.8652V13.0714C22.7361 13.4524 23.241 13.7699 23.7856 14.0157V11.8669C23.7856 11.5678 24.0202 11.324 24.3103 11.324C24.6005 11.324 24.8371 11.5678 24.8371 11.8669V14.3824C25.3379 14.5095 25.8626 14.5771 26.4033 14.5771C26.9419 14.5771 27.4666 14.5094 27.9676 14.3824V11.8669C27.9676 11.5678 28.2041 11.324 28.4943 11.324C28.7845 11.324 29.019 11.5678 29.019 11.8669V14.0157C29.5656 13.7699 30.0704 13.4504 30.5256 13.0693V10.8651C30.5256 10.3838 30.3327 9.94534 30.0227 9.62585C29.7146 9.30832 29.2893 9.11161 28.8222 9.11161H28.2717V9.11168ZM13.788 24.6291C14.2412 24.539 14.7242 24.4652 15.2211 24.4079C15.6365 24.3628 16.0579 24.3301 16.4733 24.3158V19.0429H11.216C11.2279 19.5858 11.2557 20.1204 11.2994 20.6428C11.3532 21.2778 11.4287 21.8863 11.5221 22.4661C12.0508 22.7938 12.5358 23.1871 12.9691 23.6337C13.2673 23.9408 13.5416 24.2747 13.788 24.6291ZM17.5267 24.3136C19.089 24.3628 20.5638 24.6332 21.8796 25.0757C22.4123 23.314 22.7382 21.2531 22.784 19.0428H17.5267V24.3136ZM22.8634 25.4526C23.897 25.8992 24.8033 26.4604 25.5427 27.1099C26.2802 26.3334 26.9181 25.4547 27.4369 24.5001C27.5781 24.2399 27.8961 24.1458 28.1505 24.2911C28.403 24.4345 28.4944 24.7643 28.3533 25.0245C27.2224 27.1119 25.5686 28.8511 23.5711 30.0598C21.6411 31.2274 19.3951 31.8973 17.0001 31.8973C16.5529 31.8973 16.1017 31.8727 15.6505 31.8256C15.3603 31.7928 15.0721 31.7539 14.7878 31.7027C14.4102 32.8457 13.7821 33.8721 12.9692 34.7079C11.5957 36.1232 9.69548 37 7.59663 37C5.57126 37 3.65121 36.1765 2.22612 34.7077C0.850747 33.2901 0 31.3318 0 29.1706C0 27.0073 0.850747 25.0511 2.22612 23.6335C2.86609 22.9719 3.62344 22.429 4.46016 22.0378C4.32897 21.5461 4.22562 21.0442 4.1501 20.532C4.0527 19.8683 4.00103 19.1904 4.00103 18.5C4.00103 17.7318 4.06462 16.9739 4.18789 16.2343C4.31305 15.4805 4.49796 14.7471 4.74043 14.0404C4.83782 13.7577 5.13793 13.6102 5.41027 13.7107C5.6845 13.8089 5.82761 14.1183 5.73022 14.401C5.50962 15.0483 5.33671 15.7223 5.22333 16.4168C5.13989 16.9186 5.08625 17.4328 5.0643 17.9593H10.1645C10.2102 15.6158 10.56 13.426 11.1364 11.5475C10.1029 11.1009 9.19652 10.5397 8.45712 9.89237C7.77936 10.6052 7.18503 11.4041 6.6921 12.2706C6.54499 12.5267 6.22504 12.6127 5.97458 12.4631C5.72419 12.3115 5.64068 11.9798 5.78778 11.7237C6.93668 9.70795 8.58236 8.02813 10.5501 6.86668C12.4524 5.74396 14.6526 5.10282 17 5.10282C17.4472 5.10282 17.8984 5.12739 18.3496 5.1766C18.6398 5.20732 18.928 5.24829 19.2122 5.29743C19.5899 4.15448 20.2199 3.13019 21.0308 2.29429C22.4043 0.876799 24.3044 0 26.4034 0C28.5003 0 30.4005 0.876799 31.7739 2.29429C33.1493 3.7099 34 5.66823 34 7.8294C34 9.99267 33.1493 11.951 31.7739 13.3665C31.1338 14.0281 30.3766 14.5709 29.5398 14.9643C29.671 15.456 29.7744 15.9578 29.8499 16.468C29.9473 17.1317 29.999 17.8096 29.999 18.5C29.999 19.2149 29.9433 19.9237 29.834 20.6222C29.7246 21.333 29.5616 22.0214 29.3509 22.6831C29.2615 22.9678 28.9654 23.1236 28.6891 23.0313C28.4128 22.9391 28.2638 22.6339 28.3532 22.3492C28.5479 21.7326 28.699 21.0995 28.8004 20.4522C28.87 19.9955 28.9156 19.5243 28.9356 19.0429H23.8354C23.7896 21.3843 23.4399 23.5741 22.8634 25.4526ZM24.7716 27.8535C24.1454 27.3228 23.3842 26.8558 22.5176 26.4768C22.3368 26.9562 22.1419 27.4089 21.9333 27.835C21.4364 28.847 20.856 29.7033 20.2139 30.3649C21.2157 30.0761 22.1638 29.6582 23.0403 29.1277C23.6545 28.7569 24.2349 28.3287 24.7716 27.8535ZM21.5337 26.0979C20.3273 25.6943 18.9697 25.4465 17.5267 25.3973V30.7603C18.8524 30.4961 20.0668 29.2403 20.997 27.3474C21.1899 26.9562 21.3688 26.5382 21.5337 26.0979ZM16.4733 25.3993C16.0897 25.4137 15.706 25.4424 15.3303 25.4833C15.0064 25.5202 14.6844 25.5673 14.3703 25.6205C14.8971 26.6857 15.1952 27.8924 15.1952 29.1706C15.1952 29.4984 15.1753 29.8221 15.1376 30.1395C15.402 30.3341 15.6722 30.4919 15.9505 30.6046C16.1235 30.6742 16.2964 30.7275 16.4733 30.7623V25.3993ZM9.22843 9.14652C9.85458 9.67919 10.6178 10.1442 11.4844 10.5252C11.6633 10.0458 11.8581 9.59102 12.0668 9.16697C12.5637 8.15503 13.1421 7.29876 13.7861 6.63709C12.8261 6.91358 11.9177 7.30902 11.073 7.80671C10.415 8.19398 9.79891 8.64261 9.22843 9.14652ZM12.4663 10.9021C13.6727 11.3077 15.0303 11.5535 16.4733 11.6027V6.23978C15.1475 6.50398 13.9331 7.75967 13.0029 9.65462C12.8101 10.0438 12.6312 10.4618 12.4663 10.9021ZM17.5267 11.6028C17.9282 11.5905 18.3198 11.5618 18.6995 11.5188C19.0174 11.4839 19.3275 11.4389 19.6316 11.3856C19.1029 10.3183 18.8048 9.10966 18.8048 7.8294C18.8048 7.50161 18.8247 7.18002 18.8624 6.86249C18.6001 6.66578 18.3278 6.51012 18.0495 6.39746C17.8766 6.3278 17.7036 6.27454 17.5267 6.2397V11.6028ZM20.2139 12.373C19.7568 12.4672 19.2897 12.5409 18.8107 12.5942C18.3874 12.6414 17.958 12.6741 17.5267 12.6864V17.9592H22.7839C22.772 17.4144 22.7442 16.8797 22.7005 16.3573C22.6468 15.7223 22.5713 15.1138 22.4779 14.5362C21.9511 14.2084 21.4642 13.8151 21.0308 13.3665C20.7327 13.0592 20.4585 12.7273 20.2139 12.373ZM16.4733 12.6864C14.911 12.6372 13.4362 12.3668 12.1204 11.9243C11.5877 13.688 11.2618 15.7468 11.2161 17.9592H16.4733V12.6864H16.4733ZM23.6246 15.1199C23.6744 15.499 23.7161 15.88 23.7479 16.2651C23.7936 16.8182 23.8234 17.3836 23.8354 17.9592H28.9356C28.9177 17.5085 28.8759 17.0639 28.8103 16.6296C28.7467 16.1913 28.6593 15.7632 28.5519 15.3431C27.8701 15.5501 27.1487 15.6608 26.4033 15.6608C25.4214 15.6608 24.4854 15.4682 23.6246 15.1199ZM10.3753 21.88C10.3256 21.501 10.2838 21.1199 10.252 20.7369C10.2063 20.1818 10.1765 19.6164 10.1646 19.0429H5.06437C5.08232 19.4935 5.12601 19.936 5.1896 20.3723C5.2532 20.8087 5.34064 21.2389 5.44799 21.6589C6.12975 21.452 6.85127 21.3413 7.59663 21.3413C8.5785 21.3412 9.51465 21.5318 10.3753 21.88Z" fill="white"/>
</svg>
