<svg width="36" height="36" viewBox="0 0 36 36" fill="none" xmlns="http://www.w3.org/2000/svg">
<path fill-rule="evenodd" clip-rule="evenodd" d="M30.2283 11.387C31.2963 12.2459 31.9233 13.5382 31.937 14.9087L31.924 26.8696C31.924 30.1185 29.2902 32.7522 26.0413 32.7522H23.4326C21.8601 32.7522 20.5833 31.4812 20.5761 29.9087V24.5087C20.5761 24.0909 20.2374 23.7522 19.8196 23.7522H15.9066C15.7036 23.7522 15.5092 23.8336 15.367 23.9784C15.2247 24.1231 15.1465 24.3189 15.15 24.5217V26.5826C15.15 27.231 14.6245 27.7565 13.9761 27.7565C13.3278 27.7565 12.8022 27.231 12.8022 26.5826V24.5217C12.8022 23.695 13.1306 22.902 13.7153 22.3174C14.2999 21.7328 15.0928 21.4044 15.9196 21.4044H19.8326C21.5492 21.4115 22.937 22.8051 22.937 24.5217V29.9087C22.937 30.1824 23.1589 30.4044 23.4326 30.4044H26.1066C28.0516 30.4044 29.6283 28.8276 29.6283 26.8826V14.9348C29.6187 14.2729 29.3123 13.6503 28.7935 13.2391L19.7805 6.05218C18.6439 5.11649 17.004 5.11649 15.8674 6.05218L12.9718 8.2174C12.4351 8.6028 11.6876 8.48016 11.3022 7.94349C10.9168 7.40681 11.0394 6.65932 11.5761 6.27392L14.4326 4.20001C16.4132 2.60797 19.2346 2.60797 21.2153 4.20001L30.2283 11.387ZM9.63261 30.3913H15.6326V30.4174C16.2809 30.4174 16.8065 30.943 16.8065 31.5913C16.8065 32.2397 16.2809 32.7652 15.6326 32.7652H9.63261C6.38671 32.7581 3.75717 30.1285 3.75 26.8826V14.9348C3.77075 13.5542 4.41881 12.258 5.51087 11.4131L6.59348 10.6044C7.10328 10.364 7.71193 10.5199 8.04343 10.9757C8.37493 11.4316 8.33571 12.0586 7.95 12.4696L6.89348 13.2522C6.39287 13.6681 6.10164 14.284 6.09783 14.9348V26.8696C6.11211 28.8137 7.68843 30.3842 9.63261 30.3913Z" fill="#CDCDCD"/>
</svg>
