<svg width="30" height="30" viewBox="0 0 30 30" fill="none" xmlns="http://www.w3.org/2000/svg">
<path fill-rule="evenodd" clip-rule="evenodd" d="M2.5 14.9998C2.5 8.10601 8.1075 2.49976 15 2.49976C21.8925 2.49976 27.5 8.10601 27.5 14.9998C27.5 21.8923 21.8925 27.4998 15 27.4998C11.0913 27.4998 7.47875 25.721 5.09125 22.6223C4.785 22.2235 4.85875 21.6523 5.2575 21.3473C5.65375 21.0398 6.22375 21.116 6.53125 21.5123C8.5725 24.1623 11.6588 25.6823 15 25.6823C20.89 25.6823 25.6825 20.891 25.6825 14.9998C25.6825 9.10976 20.89 4.31726 15 4.31726C9.11 4.31726 4.3175 9.10976 4.3175 14.9998C4.3175 15.5473 4.35875 16.091 4.44 16.6235C4.515 17.1185 4.175 17.5823 3.67875 17.6585C3.18 17.741 2.71875 17.3948 2.64375 16.8985C2.54875 16.276 2.5 15.6373 2.5 14.9998ZM15 9.31738C14.4825 9.31738 14.0625 9.73738 14.0625 10.2549V15.7799C14.0625 16.2974 14.4825 16.7174 15 16.7174C15.5175 16.7174 15.9375 16.2974 15.9375 15.7799V10.2549C15.9375 9.73738 15.5175 9.31738 15 9.31738ZM15.0128 18.8071H15.0003C14.4828 18.8071 14.0691 19.2271 14.0691 19.7446C14.0691 20.2621 14.4953 20.6821 15.0128 20.6821C15.5303 20.6821 15.9503 20.2621 15.9503 19.7446C15.9503 19.2271 15.5303 18.8071 15.0128 18.8071Z" fill="#CDCDCD"/>
</svg>
