<svg width="25" height="27" viewBox="0 0 25 27" fill="none" xmlns="http://www.w3.org/2000/svg">
<path d="M7.81288 22.3066H4.39491V10.3887H7.81288V22.3066ZM8.15392 6.59159C8.15392 5.39827 7.25746 4.42969 6.15311 4.42969C5.04456 4.42969 4.15039 5.39827 4.15039 6.59159C4.15039 7.78532 5.04456 8.75391 6.15311 8.75391C7.25746 8.75391 8.15392 7.78532 8.15392 6.59159ZM20.6055 15.7499C20.6055 12.5506 19.9797 10.1777 16.5192 10.1777C14.8563 10.1777 13.7402 11.0759 13.2845 12.0098H13.2812V10.3887H9.96094V22.3066H13.2812V16.3893C13.2812 14.8396 13.6465 13.3383 15.4251 13.3383C17.1795 13.3383 17.2363 15.1105 17.2363 16.4877V22.3066H20.6055V15.7499ZM25 23.8359V3.16406C25 1.4193 23.6858 0 22.0703 0H2.92969C1.31416 0 0 1.4193 0 3.16406V23.8359C0 25.5807 1.31416 27 2.92969 27H22.0703C23.6858 27 25 25.5807 25 23.8359ZM22.0703 2.10938C22.6088 2.10938 23.0469 2.58254 23.0469 3.16406V23.8359C23.0469 24.4175 22.6088 24.8906 22.0703 24.8906H2.92969C2.39124 24.8906 1.95312 24.4175 1.95312 23.8359V3.16406C1.95312 2.58254 2.39124 2.10938 2.92969 2.10938H22.0703Z" fill="white"/>
</svg>
