<svg width="18" height="20" viewBox="0 0 18 20" fill="none" xmlns="http://www.w3.org/2000/svg">
<path fill-rule="evenodd" clip-rule="evenodd" d="M8.59367 0H8.62741C13.3655 0.0179558 17.206 3.74592 17.1873 8.30926V8.39989C17.1234 11.661 15.0904 14.3672 13.3965 16.0627C12.9145 16.5476 12.4013 17.0127 11.8722 17.4471C11.5553 17.7078 11.0794 17.6719 10.8087 17.3667C10.5379 17.0606 10.5761 16.6023 10.893 16.3415C11.3831 15.9388 11.8598 15.5061 12.3081 15.0555C13.8156 13.5472 15.6231 11.1625 15.6781 8.37339C15.6932 4.54196 12.5283 1.4681 8.62119 1.45271H8.59367C4.69989 1.45271 1.52431 4.49665 1.50922 8.24941C1.5758 10.1031 2.22565 11.8654 3.38953 13.3437C4.74783 15.088 6.80835 16.9349 8.76679 18.1644C9.11657 18.3833 9.21512 18.8331 8.98696 19.17C8.84314 19.3837 8.60077 19.5 8.35397 19.5C8.21282 19.5 8.07077 19.4624 7.94293 19.382C5.84601 18.0661 3.63899 16.0875 2.18393 14.2193C0.833622 12.5032 0.0781243 10.4554 0 8.29986C0.0186433 3.6912 3.8707 0 8.59367 0ZM6.83004 8.39868C6.83004 9.33323 7.62016 10.0951 8.59139 10.0951C9.56262 10.0951 10.3527 9.33323 10.3527 8.39868C10.3527 7.46327 9.56262 6.70143 8.59139 6.70143C8.17502 6.70143 7.83678 6.37651 7.83678 5.9755C7.83678 5.57363 8.17502 5.24872 8.59139 5.24872C10.3945 5.24872 11.862 6.66124 11.862 8.39868C11.862 10.1353 10.3945 11.5478 8.59139 11.5478C6.78832 11.5478 5.32082 10.1353 5.32082 8.39868C5.32082 7.99681 5.65906 7.6719 6.07543 7.6719C6.4918 7.6719 6.83004 7.99681 6.83004 8.39868Z" fill="white"/>
</svg>
