<svg width="166" height="56" viewBox="0 0 166 56" fill="none" xmlns="http://www.w3.org/2000/svg">
<g id="Iconly/Broken/Location">
<g id="Location">
<path id="Location_2" fill-rule="evenodd" clip-rule="evenodd" d="M153.5 0.68042H153.546C159.99 0.705742 165.213 5.96313 165.187 12.3986V12.5264C165.1 17.1254 162.335 20.9419 160.032 23.333C159.376 24.0167 158.678 24.6727 157.959 25.2852C157.528 25.653 156.881 25.6024 156.512 25.1719C156.144 24.7402 156.196 24.0939 156.627 23.7261C157.293 23.1582 157.942 22.548 158.552 21.9126C160.602 19.7855 163.06 16.4224 163.135 12.489C163.155 7.08575 158.851 2.75082 153.537 2.72911H153.5C148.204 2.72911 143.886 7.02184 143.865 12.3142C143.956 14.9284 144.839 17.4136 146.422 19.4985C148.27 21.9584 151.072 24.563 153.735 26.2969C154.211 26.6056 154.345 27.2399 154.035 27.715C153.839 28.0164 153.51 28.1804 153.174 28.1804C152.982 28.1804 152.789 28.1274 152.615 28.014C149.763 26.1583 146.762 23.368 144.783 20.7333C142.946 18.3132 141.919 15.4252 141.812 12.3853C141.838 5.88596 147.077 0.68042 153.5 0.68042ZM151.101 12.5247C151.101 13.8427 152.175 14.9171 153.496 14.9171C154.817 14.9171 155.892 13.8427 155.892 12.5247C155.892 11.2055 154.817 10.1312 153.496 10.1312C152.93 10.1312 152.47 9.67294 152.47 9.10741C152.47 8.54067 152.93 8.08246 153.496 8.08246C155.948 8.08246 157.944 10.0745 157.944 12.5247C157.944 14.9737 155.948 16.9658 153.496 16.9658C151.044 16.9658 149.048 14.9737 149.048 12.5247C149.048 11.958 149.508 11.4998 150.075 11.4998C150.641 11.4998 151.101 11.958 151.101 12.5247Z" fill="white"/>
</g>
</g>
</svg>
