<svg width="30" height="30" viewBox="0 0 30 30" fill="none" xmlns="http://www.w3.org/2000/svg">
<path fill-rule="evenodd" clip-rule="evenodd" d="M10.0729 9.19233C10.0729 6.4924 12.283 4.2962 15 4.2962C17.717 4.2962 19.927 6.4924 19.927 9.19233C19.927 11.891 17.717 14.0872 15 14.0872C12.283 14.0872 10.0729 11.891 10.0729 9.19233ZM8.26539 9.19233C8.26539 12.881 11.2868 15.8834 15 15.8834C18.7132 15.8834 21.7333 12.881 21.7333 9.19233C21.7333 5.50243 18.7132 2.5 15 2.5C11.2868 2.5 8.26539 5.50243 8.26539 9.19233ZM13.722 27.4813C14.1409 27.4938 14.5673 27.5 15 27.5C19.2931 27.5 25 27.0238 25 22.9126C25 18.299 17.473 18.299 15 18.299C10.7069 18.299 5 18.7752 5 22.8876C5 24.1188 5.5761 25.78 8.32075 26.7038C8.79497 26.8663 9.30566 26.61 9.46667 26.1413C9.62641 25.6726 9.37358 25.1638 8.90063 25.0051C7.02264 24.3726 6.80629 23.4939 6.80629 22.8876C6.80629 21.0339 9.56352 20.0939 15 20.0939C20.4365 20.0939 23.1937 21.0427 23.1937 22.9126C23.1937 24.7651 20.4365 25.7038 15 25.7038C14.5849 25.7038 14.1761 25.6988 13.7736 25.6876C13.2906 25.6913 12.8604 26.0638 12.8465 26.5588C12.8314 27.055 13.2239 27.4688 13.722 27.4813Z" fill="#569B51"/>
</svg>
