<svg width="30" height="30" viewBox="0 0 30 30" fill="none" xmlns="http://www.w3.org/2000/svg">
<path fill-rule="evenodd" clip-rule="evenodd" d="M10.1714 7.31171C8.87148 7.99613 7.27701 7.9863 5.98706 7.28591L5.93025 7.23321C5.34982 6.89849 5.17178 6.19064 5.53259 5.65218C5.89339 5.11372 6.65641 4.94855 7.23684 5.28327C7.49593 5.42352 7.78909 5.50058 8.08897 5.50725C8.5486 5.52508 8.99701 5.37261 9.33535 5.08345C9.67369 4.79429 9.87419 4.39217 9.89264 3.96575C9.8839 1.82317 11.7169 0.0642624 14.0255 0H15.9711C18.3242 0 20.2318 1.76963 20.2318 3.95257C20.228 4.23042 20.3066 4.5039 20.459 4.74309C20.6852 5.11339 21.0617 5.3844 21.5045 5.49576C21.9473 5.60713 22.4197 5.54959 22.8166 5.33597C24.8159 4.32627 27.3176 4.9529 28.4974 6.7589C28.8235 7.31003 28.623 8.00166 28.0429 8.32675C27.4535 8.63893 26.7032 8.45761 26.3529 7.91832C25.8715 7.15781 24.8196 6.89913 23.9953 7.33861C22.6911 8.00111 21.109 7.98494 19.8209 7.29593C18.5327 6.60692 17.725 5.34476 17.6896 3.96575C17.705 3.53388 17.5308 3.11472 17.2068 2.80425C16.8829 2.49378 16.4369 2.31861 15.9711 2.31884H14.0255C13.5584 2.31871 13.1112 2.49347 12.785 2.80352C12.4588 3.11357 12.2813 3.53264 12.2928 3.96575C12.2796 5.35227 11.4712 6.62729 10.1714 7.31171ZM12.2927 26.0869C12.3005 26.9695 13.074 27.6812 14.0254 27.6811L14.0112 27.7075C14.4526 27.7075 14.8605 27.926 15.0812 28.2806C15.302 28.6353 15.302 29.0722 15.0812 29.4269C14.8605 29.7815 14.4526 30 14.0112 30C11.6581 30 9.75056 28.2304 9.75056 26.0474C9.75439 25.7696 9.67578 25.4961 9.52333 25.2569C9.04681 24.4916 7.99369 24.2268 7.16578 24.664C5.16647 25.6737 2.66475 25.0471 1.48493 23.2411L0.519188 21.6732C-0.569207 19.8185 0.106258 17.4976 2.05302 16.4031C2.31104 16.2623 2.52611 16.0628 2.67791 15.8234C2.96274 15.4551 3.0651 14.9918 2.95939 14.5492C2.85369 14.1067 2.5499 13.7268 2.12403 13.5046C0.177269 12.4101 -0.498196 10.0892 0.590199 8.23448C0.772313 7.9805 1.05604 7.80434 1.37857 7.74499C1.7011 7.68564 2.03583 7.74801 2.30865 7.91828C2.84759 8.25825 3.00385 8.93088 2.66371 9.44661C2.19365 10.2107 2.47967 11.1836 3.3028 11.6205C3.92124 11.9721 4.43029 12.467 4.77982 13.0566C5.86822 14.9114 5.19275 17.2322 3.24599 18.3267C2.42286 18.7636 2.13684 19.7365 2.6069 20.5006L3.58685 22.0685C3.80982 22.4421 4.18743 22.7152 4.6324 22.8246C5.07738 22.934 5.55121 22.8703 5.9444 22.6482C6.57837 22.3071 7.29923 22.1297 8.03211 22.1344C10.3852 22.1344 12.2927 23.904 12.2927 26.0869ZM27.9292 16.3901C27.5324 16.178 27.2433 15.8278 27.126 15.4172C27.0087 15.0066 27.0729 14.5695 27.3043 14.203C27.4561 13.9636 27.6712 13.7641 27.9292 13.6233C28.512 13.2984 28.7024 12.5977 28.3553 12.0554C28.0102 11.52 27.2738 11.329 26.6794 11.6206C24.7326 12.7151 24.0572 15.036 25.1456 16.8907C25.4913 17.5387 26.0281 18.0823 26.6936 18.4586C27.0894 18.6681 27.3783 19.0159 27.4957 19.4244C27.6131 19.8329 27.5493 20.268 27.3185 20.6325L26.3528 22.2003C26.1202 22.5672 25.7436 22.8364 25.3018 22.9513C24.8592 23.0608 24.3877 22.999 23.9952 22.78C22.6888 22.1166 21.1038 22.1341 19.8148 22.8262C18.5258 23.5184 17.72 24.7847 17.6895 26.1661C17.7574 26.7553 18.2934 27.2021 18.9321 27.2021C19.5709 27.2021 20.1068 26.7553 20.1748 26.1661C20.1631 25.5905 20.4896 25.0544 21.0271 24.7667C21.5647 24.479 22.2283 24.4851 22.7596 24.7827C24.7589 25.7924 27.2606 25.1658 28.4405 23.3598L29.4062 21.7919C30.5987 19.9208 29.9389 17.5076 27.9292 16.3901ZM14.991 10.0527C12.8299 10.0527 10.8818 11.2611 10.0562 13.1139C9.23047 14.9666 9.68994 17.0984 11.2201 18.5142C12.7503 19.9299 15.0494 20.3505 17.0444 19.5796C19.0394 18.8087 20.3368 16.9983 20.331 14.9934C20.331 13.6808 19.768 12.4221 18.7661 11.4951C17.7642 10.5682 16.406 10.0492 14.991 10.0527ZM14.9913 17.6416C13.4226 17.6416 12.1509 16.4619 12.1509 15.0066C12.1509 13.5513 13.4226 12.3715 14.9913 12.3715C16.56 12.3715 17.8317 13.5513 17.8317 15.0066C17.8317 16.4619 16.56 17.6416 14.9913 17.6416Z" fill="white"/>
</svg>
