<svg width="30" height="32" viewBox="0 0 30 32" fill="none" xmlns="http://www.w3.org/2000/svg">
<path fill-rule="evenodd" clip-rule="evenodd" d="M10.1714 7.81688C8.87148 8.5168 7.27701 8.50675 5.98706 7.79049L5.93025 7.7366C5.34982 7.3943 5.17178 6.67042 5.53259 6.11977C5.89339 5.56912 6.65642 5.40021 7.23684 5.74251C7.49593 5.88593 7.78909 5.96473 8.08897 5.97156C8.5486 5.9898 8.99701 5.83387 9.33535 5.53816C9.67369 5.24245 9.87419 4.83123 9.89264 4.39515C9.8839 2.20406 11.7169 0.405317 14.0255 0.3396H15.9711C18.3242 0.3396 20.2318 2.1493 20.2318 4.38168C20.228 4.66582 20.3066 4.94548 20.459 5.19009C20.6852 5.56878 21.0617 5.84593 21.5045 5.95981C21.9473 6.0737 22.4197 6.01486 22.8166 5.7964C24.8159 4.76384 27.3176 5.40465 28.4974 7.25155C28.8235 7.81517 28.623 8.52245 28.043 8.85491C27.4535 9.17415 26.7032 8.98873 26.3529 8.43722C25.8715 7.6595 24.8196 7.39496 23.9953 7.84439C22.6912 8.52189 21.109 8.50535 19.8209 7.80074C18.5327 7.09613 17.725 5.80539 17.6896 4.39515C17.705 3.95351 17.5308 3.52485 17.2068 3.20735C16.8829 2.88985 16.4369 2.71071 15.9711 2.71095H14.0255C13.5584 2.71082 13.1112 2.88954 12.785 3.2066C12.4588 3.52367 12.2813 3.95223 12.2928 4.39515C12.2796 5.81307 11.4712 7.11696 10.1714 7.81688ZM12.2928 27.0173C12.3006 27.9198 13.074 28.6476 14.0254 28.6476L14.0112 28.6745C14.4527 28.6745 14.8606 28.8979 15.0813 29.2606C15.302 29.6233 15.302 30.0701 15.0813 30.4328C14.8606 30.7955 14.4527 31.0189 14.0112 31.0189C11.6581 31.0189 9.75059 29.2092 9.75059 26.9768C9.75442 26.6927 9.67581 26.413 9.52336 26.1684C9.04684 25.3858 7.99371 25.115 7.1658 25.5621C5.16648 26.5947 2.66476 25.9539 1.48494 24.107L0.519189 22.5036C-0.569208 20.6069 0.106258 18.2335 2.05302 17.1142C2.31105 16.9702 2.52612 16.7661 2.67792 16.5213C2.96275 16.1447 3.06511 15.6708 2.9594 15.2183C2.85369 14.7657 2.54991 14.3772 2.12403 14.15C0.177269 13.0307 -0.498197 10.6573 0.5902 8.76055C0.772315 8.50082 1.05605 8.32066 1.37858 8.25997C1.70111 8.19928 2.03584 8.26306 2.30866 8.43718C2.8476 8.78485 3.00386 9.47271 2.66372 10.0001C2.19365 10.7815 2.47967 11.7765 3.30281 12.2233C3.92125 12.5828 4.43031 13.0889 4.77984 13.6919C5.86823 15.5886 5.19277 17.962 3.246 19.0813C2.42287 19.5281 2.13684 20.5231 2.60691 21.3045L3.58686 22.9078C3.80983 23.2899 4.18744 23.5692 4.63242 23.6811C5.07739 23.7929 5.55123 23.7278 5.94441 23.5007C6.57839 23.1518 7.29925 22.9704 8.03213 22.9752C10.3852 22.9752 12.2928 24.7849 12.2928 27.0173ZM27.9292 17.1008C27.5325 16.8839 27.2433 16.5258 27.126 16.1059C27.0087 15.686 27.0729 15.239 27.3043 14.8642C27.4561 14.6194 27.6712 14.4153 27.9292 14.2713C28.5121 13.9391 28.7025 13.2226 28.3553 12.668C28.0102 12.1205 27.2738 11.9251 26.6794 12.2234C24.7327 13.3426 24.0572 15.716 25.1456 17.6128C25.4913 18.2754 26.0281 18.8314 26.6936 19.2161C27.0894 19.4304 27.3783 19.7861 27.4957 20.2038C27.6131 20.6216 27.5493 21.0665 27.3185 21.4393L26.3528 23.0426C26.1202 23.4179 25.7436 23.6931 25.3018 23.8106C24.8593 23.9226 24.3877 23.8594 23.9952 23.6355C22.6888 22.957 21.1038 22.9749 19.8148 23.6827C18.5258 24.3905 17.72 25.6855 17.6895 27.0982C17.7574 27.7007 18.2934 28.1577 18.9321 28.1577C19.5709 28.1577 20.1068 27.7007 20.1748 27.0982C20.1631 26.5095 20.4896 25.9614 21.0271 25.6671C21.5647 25.3729 22.2283 25.3792 22.7596 25.6835C24.7589 26.716 27.2607 26.0752 28.4405 24.2283L29.4062 22.625C30.5988 20.7115 29.9389 18.2436 27.9292 17.1008ZM14.991 10.6199C12.8299 10.6199 10.8819 11.8557 10.0562 13.7504C9.23046 15.6451 9.68994 17.8252 11.2201 19.273C12.7503 20.7208 15.0495 21.1509 17.0444 20.3626C19.0394 19.5742 20.3368 17.7228 20.331 15.6725C20.331 14.3302 19.768 13.043 18.7661 12.095C17.7643 11.1471 16.406 10.6164 14.991 10.6199ZM14.9913 18.3807C13.4226 18.3807 12.1509 17.1742 12.1509 15.686C12.1509 14.1977 13.4226 12.9913 14.9913 12.9913C16.5601 12.9913 17.8318 14.1977 17.8318 15.686C17.8318 17.1742 16.5601 18.3807 14.9913 18.3807Z" fill="white"/>
</svg>
