<svg width="25" height="27" viewBox="0 0 25 27" fill="none" xmlns="http://www.w3.org/2000/svg">
<path d="M7.81288 21.7358H4.39491V10.1228H7.81288V21.7358ZM8.15392 6.42292C8.15392 5.26014 7.25746 4.31634 6.15311 4.31634C5.04456 4.31634 4.15039 5.26014 4.15039 6.42292C4.15039 7.58611 5.04456 8.52991 6.15311 8.52991C7.25746 8.52991 8.15392 7.58611 8.15392 6.42292ZM20.6055 15.3468C20.6055 12.2294 19.9797 9.9173 16.5192 9.9173C14.8563 9.9173 13.7402 10.7925 13.2845 11.7025H13.2812V10.1228H9.96094V21.7358H13.2812V15.9699C13.2812 14.4599 13.6465 12.997 15.4251 12.997C17.1795 12.997 17.2363 14.7238 17.2363 16.0658V21.7358H20.6055V15.3468ZM25 23.226V3.0831C25 1.38298 23.6858 0 22.0703 0H2.92969C1.31416 0 0 1.38298 0 3.0831V23.226C0 24.9261 1.31416 26.3091 2.92969 26.3091H22.0703C23.6858 26.3091 25 24.9261 25 23.226ZM22.0703 2.0554C22.6088 2.0554 23.0469 2.51646 23.0469 3.0831V23.226C23.0469 23.7927 22.6088 24.2537 22.0703 24.2537H2.92969C2.39124 24.2537 1.95312 23.7927 1.95312 23.226V3.0831C1.95312 2.51646 2.39124 2.0554 2.92969 2.0554H22.0703Z" fill="white"/>
</svg>
