<svg width="30" height="30" viewBox="0 0 30 30" fill="none" xmlns="http://www.w3.org/2000/svg">
<path fill-rule="evenodd" clip-rule="evenodd" d="M22.7287 5.72625H20.275C20.0425 3.90875 18.4862 2.5 16.6075 2.5H13.38C11.5012 2.5 9.945 3.9075 9.7125 5.725L7.27125 5.72625C4.64 5.72625 2.5 7.86125 2.5 10.485V14.8187C2.5 15.1337 2.6575 15.4275 2.92125 15.6012C5.495 17.3 8.54125 18.4312 11.73 18.875C12.2037 18.945 12.6387 18.6487 12.7637 18.1937C13.0425 17.18 13.9362 16.4987 14.9875 16.4987C16.0275 16.4987 16.93 17.195 17.1825 18.1887C17.2887 18.6087 17.6675 18.8962 18.09 18.8962C18.1337 18.8962 18.1762 18.8937 18.22 18.8875C21.43 18.4437 24.49 17.3062 27.0675 15.6012C27.33 15.4262 27.4875 15.1337 27.4875 14.8187V10.485C27.4875 7.86125 25.3525 5.72625 22.7287 5.72625ZM25.6125 14.3063C23.5587 15.5825 21.1912 16.4763 18.6987 16.915C18.0137 15.5313 16.5887 14.6238 14.9875 14.6238C13.3987 14.6238 11.9675 15.5288 11.2637 16.9038C8.78625 16.4675 6.42625 15.5788 4.375 14.3063V10.485C4.375 8.895 5.67375 7.60125 7.2725 7.60125L10.62 7.59875C10.87 7.59875 11.1075 7.5 11.2837 7.32375C11.4587 7.14625 11.5575 6.90875 11.5575 6.66L11.5562 6.1975C11.5562 5.1925 12.375 4.375 13.38 4.375H16.6075C17.4487 4.375 18.16 4.94875 18.3687 5.72625H14.9937C14.4762 5.72625 14.0562 6.14625 14.0562 6.66375C14.0562 7.18125 14.4762 7.60125 14.9937 7.60125H22.7287C24.3187 7.60125 25.6125 8.895 25.6125 10.485V14.3063ZM15.931 19.2292V20.8467C15.931 21.3642 15.511 21.7842 14.9935 21.7842C14.476 21.7842 14.056 21.3642 14.056 20.8467V19.2292C14.056 18.7117 14.476 18.2917 14.9935 18.2917C15.511 18.2917 15.931 18.7117 15.931 19.2292ZM26.5187 18.4066C26.0275 18.4066 25.6362 18.7891 25.5987 19.2691C25.5987 19.2691 25.4062 21.4554 25.3662 22.1454C25.32 22.9091 25.01 23.7404 24.5762 24.2616C23.965 24.9991 23.2875 25.2879 22.16 25.2904C21.42 25.2916 17.4287 25.2929 14.4137 25.2929C13.895 25.2929 13.475 25.7129 13.475 26.2304C13.475 26.7479 13.895 27.1679 14.4125 27.1679C17.3225 27.1679 21.465 27.1666 22.1637 27.1654C23.8312 27.1616 25.0575 26.6191 26.02 25.4591C26.7112 24.6266 27.1662 23.4304 27.2375 22.2579C27.2658 21.7757 27.3627 20.5251 27.4167 19.8283L27.4167 19.8278L27.4168 19.8267C27.4389 19.5416 27.4537 19.3496 27.4537 19.3416C27.4537 18.8254 27.035 18.4066 26.5187 18.4066ZM7.8277 25.2901C8.0727 25.2914 8.5802 25.2914 9.24645 25.2914C9.76395 25.2914 10.1877 25.7114 10.1877 26.2289C10.1877 26.7464 9.7627 27.1664 9.24395 27.1664C8.56895 27.1664 8.07645 27.1664 7.8252 27.1651C6.15645 27.1614 4.9302 26.6189 3.9677 25.4576C3.2777 24.6264 2.82145 23.4301 2.75145 22.2576C2.72262 21.7824 2.62785 20.5605 2.57339 19.8583C2.54993 19.5557 2.53395 19.3497 2.53395 19.3414C2.53395 18.8251 2.9527 18.4064 3.46895 18.4064C3.9602 18.4064 4.3502 18.7889 4.38895 19.2701C4.38895 19.2701 4.58145 21.4564 4.6227 22.1451C4.66895 22.9089 4.9777 23.7401 5.41145 24.2601C6.02395 25.0001 6.70145 25.2876 7.8277 25.2901Z" fill="#CDCDCD"/>
</svg>
