<svg width="39" height="39" viewBox="0 0 39 39" fill="none" xmlns="http://www.w3.org/2000/svg">
<g clip-path="url(#clip0)">
<path d="M7.43812 33.2404C7.42569 33.2292 7.41287 33.2186 7.39955 33.2085C7.00196 32.8785 6.60437 32.5246 6.23858 32.1588C6.00619 31.9289 5.63206 31.9289 5.39966 32.1588C5.16707 32.3917 5.16707 32.7688 5.39966 33.0017C5.79725 33.3993 6.19485 33.7691 6.64015 34.1269C6.88497 34.3473 7.26208 34.3274 7.48245 34.0826C7.70271 33.8378 7.68293 33.4607 7.43812 33.2404Z" fill="white"/>
<path d="M1.19653 15.5592C0.885611 15.4506 0.545471 15.6147 0.436829 15.9256C0.420726 15.9717 0.41029 16.0197 0.405916 16.0683C0.286639 16.613 0.195193 17.1657 0.127602 17.7183C0.0850596 18.0416 0.309898 18.3391 0.632543 18.3863H0.708086C1.00996 18.3865 1.26432 18.1612 1.3005 17.8615C1.36411 17.3446 1.45158 16.8238 1.56291 16.3188C1.67155 16.0079 1.50744 15.6678 1.19653 15.5592Z" fill="white"/>
<path d="M4.47333 30.0794C4.16719 29.6579 3.87694 29.2206 3.61056 28.7753C3.44218 28.4922 3.07619 28.3992 2.79311 28.5675C2.79261 28.5678 2.79201 28.5681 2.79152 28.5685C2.50843 28.7369 2.4154 29.1029 2.58378 29.386C2.58407 29.3865 2.58437 29.3871 2.58477 29.3876C2.87104 29.8647 3.18116 30.3338 3.51116 30.7831C3.71463 31.0421 4.08956 31.0871 4.34859 30.8836C4.59499 30.69 4.64956 30.3386 4.47333 30.0794Z" fill="white"/>
<path d="M2.39393 26.3182C2.20308 25.8371 2.02814 25.3401 1.88103 24.8391C1.78929 24.5229 1.45839 24.3408 1.14211 24.4325C1.13654 24.4341 1.13108 24.4358 1.12561 24.4376C0.812605 24.5332 0.63518 24.8633 0.728017 25.1771C0.887054 25.7099 1.06995 26.2427 1.27669 26.7675C1.40074 27.076 1.75142 27.2255 2.05995 27.1015C2.36848 26.9774 2.51798 26.6267 2.39393 26.3182Z" fill="white"/>
<path d="M2.74976 11.4701C2.45554 11.3219 2.09682 11.4403 1.94862 11.7345C1.69813 12.2315 1.46753 12.7444 1.26476 13.2653C1.14518 13.5704 1.29438 13.9149 1.59873 14.0366C1.90498 14.1579 2.25158 14.008 2.37285 13.7017C2.37324 13.7007 2.37364 13.6996 2.37404 13.6986C2.56488 13.2136 2.77163 12.7325 3.01416 12.2713C3.16236 11.9771 3.04398 11.6184 2.74976 11.4701Z" fill="white"/>
<path d="M1.32061 22.169C1.32051 22.1685 1.32051 22.1679 1.32041 22.1674C1.2568 21.6506 1.21306 21.1257 1.19318 20.6089C1.18115 20.2795 0.904331 20.0223 0.574926 20.0343C0.245521 20.0464 -0.0116219 20.3232 0.000405275 20.6526C0.000405275 21.2092 0.06402 21.7698 0.135587 22.3225C0.17634 22.6115 0.420362 22.8285 0.712095 22.8354H0.803541C1.13036 22.7941 1.36186 22.4957 1.32061 22.169Z" fill="white"/>
<path d="M17.1426 2.27385C17.1108 1.94445 16.818 1.70331 16.4885 1.73512C15.9359 1.79078 15.3793 1.8703 14.8306 1.97765C14.5012 2.00836 14.2591 2.30029 14.2899 2.6297C14.3206 2.9591 14.6125 3.20114 14.9419 3.17042L14.9379 3.15452H15.0532C15.5661 3.05512 16.087 2.97958 16.6039 2.92789C16.9333 2.89609 17.1744 2.60326 17.1426 2.27385Z" fill="white"/>
<path d="M5.34004 7.86202C5.09195 7.64245 4.71274 7.66561 4.49317 7.91371C4.12739 8.33118 3.77751 8.7725 3.45148 9.22576C3.25825 9.49244 3.31779 9.86539 3.58458 10.0586C3.68586 10.132 3.80753 10.1716 3.93257 10.172V10.18C4.12451 10.1807 4.30501 10.0889 4.41763 9.93347C4.72378 9.51203 5.0498 9.09853 5.39173 8.70889C5.6113 8.46079 5.58814 8.08169 5.34004 7.86202Z" fill="white"/>
<path d="M21.0727 1.83442C20.5241 1.75093 19.9635 1.69129 19.4068 1.65948C19.0774 1.6397 18.7944 1.89068 18.7747 2.22008C18.7549 2.54949 19.0059 2.83248 19.3353 2.85226C19.8601 2.89201 20.3809 2.94768 20.8938 3.0272H20.9853C21.3147 3.05135 21.6012 2.80395 21.6254 2.47454C21.6495 2.14524 21.4021 1.85857 21.0727 1.83442Z" fill="white"/>
<path d="M8.72708 5.02032C8.54051 4.76695 8.18924 4.70205 7.92444 4.87212C7.46721 5.18621 7.01793 5.52814 6.58853 5.882C6.33487 6.09282 6.30018 6.46924 6.511 6.7229C6.72182 6.97657 7.09824 7.01126 7.35191 6.80043C7.7495 6.46646 8.17095 6.14838 8.60035 5.85417C8.86564 5.65895 8.9223 5.28561 8.72708 5.02032Z" fill="white"/>
<path d="M10.7271 4.5382C10.7252 4.5382 10.7233 4.53766 10.7214 4.53766C10.7194 4.53766 10.7175 4.5382 10.7156 4.5382H10.7271Z" fill="white"/>
<path d="M12.8304 3.14114C12.7432 2.82357 12.415 2.6367 12.0974 2.72397C12.0694 2.73162 12.0421 2.74136 12.0156 2.75299C11.4947 2.94384 10.9739 3.15059 10.4729 3.40107C10.1742 3.54003 10.0448 3.89478 10.1837 4.19337C10.2812 4.4028 10.4909 4.53659 10.7215 4.53778C10.8076 4.53609 10.8924 4.51611 10.9699 4.47854C11.439 4.25589 11.9241 4.05312 12.4131 3.8742C12.7309 3.78693 12.9177 3.45872 12.8304 3.14114Z" fill="white"/>
<path d="M20.0411 37.6397C20.0202 37.3103 19.7363 37.0602 19.4069 37.0811C18.8861 37.1208 18.3613 37.1327 17.8404 37.1168C17.511 37.1081 17.2369 37.3679 17.2281 37.6973C17.2194 38.0267 17.4792 38.3009 17.8086 38.3096H18.3135C18.7111 38.3096 19.1087 38.3096 19.4825 38.2738C19.8119 38.2531 20.062 37.9691 20.0411 37.6397Z" fill="white"/>
<path d="M35.6505 23.8233C35.331 23.7421 35.0061 23.9352 34.9249 24.2547C34.7976 24.7596 34.6426 25.2606 34.4676 25.7496C34.364 26.0568 34.5246 26.3905 34.8294 26.5011C35.1395 26.6123 35.481 26.4511 35.5922 26.141C35.5924 26.1404 35.5926 26.1399 35.5928 26.1393C35.7797 25.6144 35.9427 25.0777 36.0819 24.5489C36.1632 24.2294 35.9699 23.9046 35.6505 23.8233Z" fill="white"/>
<path d="M36.4119 16.9947C36.3204 16.446 36.2051 15.8934 36.066 15.3566C35.9707 15.0413 35.6378 14.8629 35.3226 14.9582C35.0237 15.0485 34.845 15.354 34.9129 15.6588C35.0441 16.1597 35.1515 16.6766 35.239 17.1895C35.2903 17.4705 35.5338 17.6756 35.8194 17.6786H35.9188C36.2438 17.6258 36.4644 17.3197 36.4119 16.9947Z" fill="white"/>
<path d="M38.9466 10.1495C38.9185 10.0885 38.8802 10.033 38.8332 9.98526L37.7795 8.8879C37.6287 8.73722 37.4069 8.68215 37.203 8.74477L35.3025 9.32128L33.076 6.95958L38.0738 4.17644C38.365 4.04235 38.4923 3.69754 38.3581 3.4064C38.3301 3.34547 38.2917 3.28991 38.2447 3.24219L36.8412 1.83869C36.6882 1.69168 36.4672 1.6398 36.2647 1.70351L29.9311 3.61991L27.8 1.35761C27.2569 0.729612 26.3727 0.519783 25.6053 0.836763H25.5695C24.9909 1.07492 24.5314 1.53444 24.2932 2.11303C24.2332 2.26412 24.1905 2.42147 24.166 2.58219L23.9235 2.4987C23.6095 2.39771 23.273 2.57036 23.172 2.88436C23.071 3.19836 23.2437 3.53482 23.5577 3.63581C23.8638 3.73521 24.17 3.84653 24.4761 3.96184C24.5683 4.10596 24.6763 4.23936 24.7982 4.35943L27.0446 6.49052L26.4005 8.61764C20.1008 4.12395 11.3511 5.58799 6.85742 11.8876C2.36373 18.1873 3.82777 26.9369 10.1274 31.4306C16.4271 35.9243 25.1768 34.4602 29.6705 28.1606C33.2539 23.1369 33.1289 16.3602 29.3625 11.4723L30.3804 9.63538L32.742 11.8619L32.1735 13.7425C32.105 13.9492 32.1589 14.1768 32.3126 14.3309C32.3126 14.3309 33.4776 15.484 33.5054 15.5237C33.7809 15.6833 34.1336 15.5895 34.2934 15.3141C34.2958 15.3098 34.2983 15.3054 34.3006 15.3011L35.8552 12.4503L38.6622 10.9196C38.9534 10.7854 39.0808 10.4406 38.9466 10.1495ZM9.26026 10.9354C11.6572 8.53951 14.9085 7.19496 18.2975 7.19804C18.5626 7.19804 18.8276 7.20599 19.0927 7.22189C21.3471 9.3013 20.6831 11.1978 19.1722 12.9075C18.2806 13.853 17.3241 14.7352 16.3096 15.5475C14.8425 16.7959 13.4747 17.9609 12.9579 19.1258C12.3456 20.5094 12.7949 21.7618 15.2679 22.8552C16.5044 23.4039 17.1763 23.8293 17.4387 24.1514C17.4426 24.156 17.4464 24.1593 17.4503 24.1622C17.4421 24.1647 17.4339 24.1674 17.4228 24.1712C16.8241 24.3993 16.1867 24.5086 15.5462 24.4933C12.5484 24.6205 10.4133 22.7041 8.75532 21.2211C7.56255 20.1595 6.57254 19.2769 5.54278 19.2689C5.71295 16.1281 7.03683 13.1604 9.26026 10.9354ZM31.1238 19.9925H31.1278C31.126 25.534 27.5637 30.4468 22.2973 32.1708C22.1494 31.2389 22.3218 30.2844 22.7863 29.4632C23.4163 28.4514 24.2246 27.5624 25.1719 26.8391C28.8417 23.7776 29.0484 22.068 29.2075 20.7519C29.3069 19.921 29.3824 19.3007 31.0244 18.3982C31.0903 18.9271 31.1235 19.4596 31.1238 19.9925ZM30.3843 15.6906C30.562 16.1912 30.7081 16.7025 30.8217 17.2213C28.3208 18.4936 28.2095 19.4001 28.0584 20.6366C27.9232 21.7499 27.7483 23.2051 24.4324 25.9723C23.3703 26.7849 22.4673 27.7863 21.7685 28.9264C21.1593 30.0033 20.9482 31.2601 21.1721 32.4769C14.275 34.0536 7.4057 29.7405 5.82904 22.8435C5.64874 22.0547 5.54357 21.2505 5.51495 20.4418C6.14712 20.4418 6.96616 21.1933 7.97207 22.0879C9.79304 23.714 12.1229 25.7894 15.5939 25.6662C16.4118 25.6803 17.2237 25.526 17.9795 25.2129C18.298 25.0721 18.5392 24.799 18.6395 24.4655C18.7241 24.0934 18.6167 23.7037 18.3532 23.4277C17.9795 22.9705 17.1604 22.4298 15.7529 21.8016C14.0711 21.0581 13.7053 20.3345 14.0353 19.595C14.4329 18.6646 15.7132 17.607 17.0729 16.4142C18.1325 15.5579 19.1303 14.6279 20.0589 13.6311C21.7208 11.7385 22.5756 9.67503 20.8859 7.41671C22.7638 7.80059 24.5307 8.60392 26.0545 9.76648L25.1401 12.7842C25.0726 12.991 25.1263 13.2181 25.2792 13.3726C25.2792 13.3726 26.7623 14.8437 26.81 14.8716C27.0854 15.0312 27.4382 14.9374 27.5979 14.6619C27.6004 14.6577 27.6028 14.6533 27.6052 14.6489L28.7622 12.5576C29.4451 13.5219 29.991 14.5764 30.3843 15.6906ZM35.716 11.2495L35.2031 11.504C35.0883 11.5609 34.9959 11.6546 34.9407 11.7703L34.6863 12.2872L33.6963 14.0764L33.406 13.7583L33.9825 11.8538C34.0497 11.6307 33.976 11.3892 33.7957 11.2415L30.6587 8.28744C30.4315 8.06429 30.0666 8.06757 29.8434 8.29469C29.838 8.30016 29.8329 8.30563 29.8277 8.31129C29.7879 8.35503 26.965 13.4402 26.965 13.4402L26.3488 12.824L28.2731 6.48237C28.3421 6.25803 28.2681 6.01431 28.0862 5.8661L25.5894 3.51633C25.313 3.28225 25.2212 2.89549 25.3627 2.56211C25.4896 2.27326 25.7212 2.04316 26.0108 1.91801H26.0307C26.36 1.79088 26.7336 1.8867 26.9611 2.15657L29.3466 4.6773C29.4964 4.83813 29.7246 4.89986 29.935 4.83634L36.2965 2.91597L36.9128 3.53224L31.8634 6.30743C31.5839 6.45991 31.4809 6.81019 31.6335 7.08959C31.6358 7.09397 31.6382 7.09824 31.6407 7.10261C31.6646 7.14635 34.7062 10.3827 34.7062 10.3827C34.8568 10.5422 35.085 10.6023 35.2946 10.5378L37.207 9.9613L37.5052 10.2595L35.716 11.2495Z" fill="white"/>
<path d="M34.1799 28.0147C34.1713 28.0097 34.1625 28.0047 34.1535 28.0001C33.8685 27.8511 33.5168 27.9549 33.3583 28.2347C33.1078 28.6919 32.8335 29.1412 32.5393 29.5706C32.3493 29.8407 32.4143 30.2136 32.6844 30.4036C32.9545 30.5935 33.3274 30.5285 33.5174 30.2584C33.8275 29.7972 34.1217 29.3161 34.3921 28.8311C34.559 28.547 34.4639 28.1815 34.1799 28.0147Z" fill="white"/>
<path d="M36.066 19.3087C35.7367 19.3042 35.466 19.5675 35.4614 19.8968C35.4613 19.9049 35.4613 19.913 35.4616 19.921V19.9886C35.4616 20.5094 35.4378 21.0343 35.3901 21.5551C35.3602 21.8831 35.6019 22.1733 35.9299 22.2031C35.9302 22.2031 35.9305 22.2032 35.9308 22.2032H35.9865C36.301 22.2062 36.5638 21.9642 36.5868 21.6505C36.6385 21.0979 36.6624 20.5373 36.6624 19.9806V19.9011C36.6602 19.5733 36.3938 19.3087 36.066 19.3087Z" fill="white"/>
<path d="M15.1248 36.8186C14.6079 36.7311 14.095 36.6198 13.598 36.4687C13.2873 36.3595 12.9469 36.5228 12.8375 36.8335C12.7282 37.1442 12.8916 37.4847 13.2023 37.594C13.2251 37.6021 13.2485 37.6086 13.272 37.6139C13.8048 37.765 14.3535 37.8962 14.9022 38.0115H15.0135C15.3429 38.0422 15.6348 37.8002 15.6655 37.4708C15.6962 37.1414 15.4542 36.8494 15.1248 36.8186Z" fill="white"/>
<path d="M24.3525 36.6374C24.2447 36.3446 23.9293 36.1844 23.6292 36.27V36.2859C23.1362 36.449 22.6273 36.5881 22.1224 36.6835C21.8007 36.756 21.5986 37.0756 21.6711 37.3972C21.7436 37.7189 22.0631 37.9209 22.3848 37.8485C22.9255 37.7252 23.4702 37.5741 23.999 37.4032C24.3081 37.2893 24.4663 36.9464 24.3525 36.6374Z" fill="white"/>
<path d="M11.0336 35.5185C10.5604 35.2839 10.0953 35.0294 9.64598 34.775C9.3616 34.6081 8.99581 34.7033 8.82892 34.9877C8.66204 35.2721 8.75726 35.6378 9.04164 35.8047C9.52272 36.087 10.0197 36.3494 10.5247 36.5999C10.8232 36.7405 11.1793 36.6122 11.3198 36.3137C11.4604 36.0151 11.3323 35.659 11.0336 35.5185Z" fill="white"/>
<path d="M31.6462 31.6821C31.4073 31.4639 31.0378 31.476 30.8138 31.7096H30.8178C30.4599 32.1072 30.0822 32.4571 29.6966 32.803C29.4507 33.0226 29.4293 33.4 29.6489 33.6459C29.8684 33.8918 30.2458 33.9132 30.4917 33.6936C30.8893 33.3239 31.3108 32.9302 31.6845 32.5247C31.9067 32.2814 31.8895 31.9042 31.6462 31.6821Z" fill="white"/>
<path d="M28.3557 34.6569C28.1867 34.3743 27.8205 34.2821 27.5378 34.4511C27.5282 34.4568 27.5189 34.4627 27.5097 34.469V34.4531C27.0724 34.7314 26.6151 34.9938 26.1539 35.2483C25.8608 35.3987 25.7451 35.7583 25.8955 36.0514C26.0459 36.3445 26.4055 36.4602 26.6986 36.3099C27.1917 36.0554 27.6807 35.7731 28.1499 35.4749C28.4325 35.3058 28.5248 34.9396 28.3557 34.6569Z" fill="white"/>
</g>
<defs>
<clipPath id="clip0">
<rect width="39" height="39" fill="white"/>
</clipPath>
</defs>
</svg>
