<svg width="47" height="55" viewBox="0 0 47 55" fill="none" xmlns="http://www.w3.org/2000/svg">
<path d="M23.5092 55C22.7997 55 22.095 54.8068 21.4729 54.435L14.9913 50.4516C14.0232 49.8896 14.4956 49.6909 14.8149 49.5764C16.1057 49.1072 16.3676 49.0012 17.7454 48.189C17.8902 48.1033 18.0798 48.1335 18.228 48.2243L23.2074 51.2916C23.3873 51.3925 23.6424 51.3925 23.8091 51.2916L43.2243 39.6583C43.4042 39.5524 43.5208 39.3354 43.5208 39.1135V15.857C43.5208 15.625 43.4042 15.4181 43.2205 15.3021L23.813 3.67891C23.6332 3.56792 23.395 3.56792 23.2152 3.67891L3.81161 15.3021C3.62353 15.4131 3.50398 15.63 3.50398 15.852V39.1084C3.50398 39.3304 3.62062 39.5423 3.80529 39.6482L9.12201 42.8365C12.0088 44.3348 13.7729 42.5691 13.7729 40.7934V17.8396C13.7729 17.5117 14.0208 17.2595 14.3367 17.2595H16.7958C17.102 17.2595 17.3547 17.5117 17.3547 17.8396V40.8035C17.3547 44.7989 15.2552 47.0943 11.6054 47.0943C10.4828 47.0943 9.59828 47.0943 7.12946 45.8331L2.03629 42.7861C0.777583 42.0294 0 40.6168 0 39.1084V15.852C0 14.3385 0.777583 12.926 2.03629 12.1794L21.471 0.541053C22.7005 -0.180351 24.3335 -0.180351 25.5533 0.541053L44.9637 12.1844C46.2176 12.9361 47 14.3436 47 15.857V39.1135C47 40.6219 46.2176 42.0294 44.9637 42.7861L25.5533 54.4244C24.9312 54.7977 24.2266 54.9894 23.5073 54.9894" fill="#689F63"/>
</svg>
